<?xml version="1.0" encoding="UTF-8" standalone="no"?>
<!-- Created with Inkscape (http://www.inkscape.org/) -->

<svg
   xmlns:dc="http://purl.org/dc/elements/1.1/"
   xmlns:cc="http://creativecommons.org/ns#"
   xmlns:rdf="http://www.w3.org/1999/02/22-rdf-syntax-ns#"
   xmlns:svg="http://www.w3.org/2000/svg"
   xmlns="http://www.w3.org/2000/svg"
   xmlns:sodipodi="http://sodipodi.sourceforge.net/DTD/sodipodi-0.dtd"
   xmlns:inkscape="http://www.inkscape.org/namespaces/inkscape"
   id="svg2"
   version="1.1"
   inkscape:version="0.48.4 r9939"
   width="450"
   height="283.75"
   xml:space="preserve"
   sodipodi:docname="coding_diag.pdf"><metadata
     id="metadata8"><rdf:RDF><cc:Work
         rdf:about=""><dc:format>image/svg+xml</dc:format><dc:type
           rdf:resource="http://purl.org/dc/dcmitype/StillImage" /><dc:title></dc:title></cc:Work></rdf:RDF></metadata><defs
     id="defs6"><clipPath
       clipPathUnits="userSpaceOnUse"
       id="clipPath172"><path
         d="m 153,224 3,0 0,-224 -3,0 0,224 z"
         id="path174" /></clipPath><clipPath
       clipPathUnits="userSpaceOnUse"
       id="clipPath182"><path
         d="m 204,224 3,0 0,-224 -3,0 0,224 z"
         id="path184" /></clipPath><clipPath
       clipPathUnits="userSpaceOnUse"
       id="clipPath192"><path
         d="m 322,224 3,0 0,-224 -3,0 0,224 z"
         id="path194" /></clipPath></defs><sodipodi:namedview
     pagecolor="#ffffff"
     bordercolor="#666666"
     borderopacity="1"
     objecttolerance="10"
     gridtolerance="10"
     guidetolerance="10"
     inkscape:pageopacity="0"
     inkscape:pageshadow="2"
     inkscape:window-width="1855"
     inkscape:window-height="1056"
     id="namedview4"
     showgrid="false"
     showguides="true"
     inkscape:guide-bbox="true"
     inkscape:zoom="2.0930361"
     inkscape:cx="169.61386"
     inkscape:cy="157.02683"
     inkscape:window-x="65"
     inkscape:window-y="24"
     inkscape:window-maximized="1"
     inkscape:current-layer="g10"><sodipodi:guide
       orientation="0,1"
       position="265.16504,279.02051"
       id="guide3951" /></sodipodi:namedview><g
     id="g10"
     inkscape:groupmode="layer"
     inkscape:label="coding_diag"
     transform="matrix(1.25,0,0,-1.25,0,283.75)"><g
       id="g12"><path
         d="M 0,0 360,0 360,227 0,227 0,0 z"
         style="fill:#ffffff;fill-opacity:1;fill-rule:nonzero;stroke:none;stroke-width:0.5608;stroke-miterlimit:3.375;stroke-dasharray:none"
         id="path14" /><path
         d="M 0,227 360,227 360,0 0,0 0,227 z"
         style="fill:none;stroke:#ffffff;stroke-opacity:1;stroke-width:0.5608;stroke-linecap:butt;stroke-linejoin:miter;stroke-miterlimit:3.375;stroke-dasharray:none"
         id="path16" /><path
         d="m 3.98,222.5 4.059,-6.84 8.508,-13.621 9.219,-13.977 9.05,-12.933 8.446,-11.352 9.156,-11.543 8.547,-10.046 8.379,-9.168 9.09,-9.184 8.484,-7.848 9.195,-7.715 9.028,-6.769 8.418,-5.582 0.14,-0.09 0.145,-0.086 0.855,-0.527 1.141,-0.688 2.285,-1.336 4.563,-2.511 0.136,-0.071 0.133,-0.066 0.266,-0.141 0.531,-0.277 1.066,-0.539 2.129,-1.047 0.133,-0.063 0.137,-0.066 0.797,-0.375 1.066,-0.492 2.129,-0.945 0.144,-0.063 0.145,-0.059 0.289,-0.125 0.578,-0.242 1.153,-0.472 2.308,-0.899 0.289,-0.109 0.867,-0.317 1.153,-0.406 2.308,-0.758 0.145,-0.043 0.422,-0.129 0.566,-0.171 1.137,-0.325 0.281,-0.078 0.285,-0.074 0.567,-0.148 1.132,-0.286 0.141,-0.031 0.141,-0.035 0.285,-0.066 0.566,-0.125 0.141,-0.032 0.144,-0.031 0.282,-0.058 0.566,-0.118 0.141,-0.027 0.144,-0.027 0.281,-0.051 0.567,-0.102 1.133,-0.183 0.133,-0.02 0.132,-0.015 0.266,-0.039 0.133,-0.016 0.129,-0.02 0.531,-0.062 0.262,-0.028 0.531,-0.054 0.133,-0.012 0.129,-0.012 0.265,-0.019 0.133,-0.012 0.133,-0.008 0.262,-0.019 0.132,-0.008 0.133,-0.004 0.266,-0.016 0.133,-0.003 0.129,-0.004 0.531,-0.016 0.793,0 0.133,0.004 0.128,0.004 0.399,0.012 0.133,0.007 0.133,0.004 0.128,0.008 0.133,0.008 0.133,0.012 0.133,0.007 0.266,0.024 0.128,0.012 0.266,0.027 0.266,0.031 0.261,0.035 0.266,0.039 0.266,0.043 0.14,0.028 0.145,0.023 0.289,0.059 0.141,0.031 0.144,0.031 0.285,0.071 0.145,0.035 0.144,0.039 0.285,0.078 0.575,0.183 0.14,0.051 0.145,0.051 0.285,0.109 0.289,0.118 0.285,0.129 0.145,0.066 0.144,0.07 0.285,0.145 0.575,0.324 0.14,0.086 0.145,0.094 0.285,0.191 0.144,0.098 0.145,0.105 0.285,0.219 0.145,0.113 0.14,0.121 0.289,0.246 0.575,0.555 0.14,0.149 0.145,0.156 0.285,0.328 0.144,0.172 0.145,0.176 0.285,0.375 0.145,0.199 0.14,0.203 0.289,0.43 0.575,0.961 0.132,0.246 0.133,0.25 0.27,0.535 0.132,0.281 0.133,0.293 0.266,0.613 0.137,0.324 0.132,0.336 0.266,0.711 0.535,1.598 0.137,0.438 0.133,0.457 0.265,0.968 0.137,0.516 0.133,0.535 0.266,1.145 0.136,0.609 0.133,0.637 0.266,1.359 0.136,0.727 0.133,0.761 0.266,1.633 0.137,0.875 0.132,0.918 0.266,1.981 0.137,1.07 0.133,1.121 0.265,2.434 0.137,1.316 0.133,1.395 0.133,1.472 0.132,1.559 0.137,1.652 0.133,1.75 0.265,3.844 0.137,2.105 0.133,2.246 0.133,2.399 0.133,2.566 0.136,2.746 0.133,2.942 0.266,6.566 0.137,3.668 0.132,3.961 0.133,4.285 0.133,4.649 0.137,5.05 0.133,5.504 0.132,6.008 0.133,6.582 0.133,7.078 0.133,7.778 0.129,8.582 0.132,9.488 0.055,4.418"
         style="fill:none;stroke:#5e81b5;stroke-opacity:1;stroke-width:0.5608;stroke-linecap:square;stroke-linejoin:miter;stroke-miterlimit:3.375;stroke-dasharray:none"
         id="path18" /><path
         d="m 183.715,222.5 0.121,-9.344 0.133,-9.011 0.129,-8.165 0.144,-8.007 0.141,-7.246 0.144,-6.571 0.141,-5.976 0.144,-5.453 0.141,-4.993 0.285,-8.785 0.141,-3.879 0.144,-3.582 0.141,-3.312 0.141,-3.074 0.144,-2.856 0.141,-2.656 0.285,-4.785 0.145,-2.16 0.14,-2.024 0.141,-1.894 0.144,-1.782 0.141,-1.675 0.144,-1.575 0.286,-2.883 0.14,-1.32 0.141,-1.25 0.285,-2.301 0.145,-1.058 0.14,-1.008 0.285,-1.863 0.141,-0.864 0.145,-0.824 0.285,-1.527 0.14,-0.711 0.145,-0.68 0.281,-1.269 0.145,-0.59 0.14,-0.57 0.285,-1.059 0.571,-1.875 0.14,-0.422 0.145,-0.402 0.285,-0.766 0.141,-0.359 0.14,-0.344 0.285,-0.652 0.145,-0.309 0.141,-0.297 0.285,-0.562 0.57,-1.012 0.133,-0.215 0.133,-0.207 0.265,-0.394 0.133,-0.192 0.133,-0.18 0.266,-0.351 0.132,-0.164 0.133,-0.16 0.266,-0.309 0.531,-0.558 0.133,-0.129 0.129,-0.125 0.265,-0.239 0.133,-0.113 0.133,-0.109 0.266,-0.211 0.132,-0.102 0.133,-0.098 0.266,-0.187 0.531,-0.34 0.266,-0.156 0.265,-0.145 0.133,-0.07 0.133,-0.066 0.266,-0.129 0.265,-0.117 0.266,-0.114 0.531,-0.203 0.133,-0.047 0.531,-0.172 0.133,-0.039 0.266,-0.074 0.132,-0.031 0.133,-0.035 0.399,-0.094 0.398,-0.082 0.145,-0.027 0.433,-0.071 0.141,-0.023 0.433,-0.059 0.29,-0.031 0.14,-0.016 0.145,-0.015 0.578,-0.047 0.14,-0.008 0.29,-0.016 0.144,-0.003 0.145,-0.008 0.289,-0.008 0.14,-0.004 0.723,0 0.141,0.004 0.144,0 0.434,0.012 0.144,0.007 0.141,0.008 0.144,0.004 0.145,0.008 0.289,0.02 0.144,0.007 0.141,0.012 0.578,0.047 0.289,0.027 0.141,0.016 0.434,0.047 0.574,0.07 0.578,0.078 0.574,0.086 0.281,0.047 0.285,0.047 0.563,0.098 1.133,0.218 0.14,0.032 0.141,0.027 0.281,0.062 0.567,0.125 1.129,0.266 0.144,0.035 0.422,0.106 0.566,0.148 1.129,0.313 2.262,0.679 0.133,0.043 0.129,0.039 0.265,0.086 0.528,0.176 1.054,0.355 2.106,0.762 4.219,1.692 0.14,0.058 0.145,0.063 0.285,0.121 0.574,0.25 1.141,0.512 2.289,1.062 4.57,2.305 0.133,0.07 0.137,0.07 0.265,0.141 0.535,0.285 1.067,0.582 2.133,1.199 4.269,2.543 8.371,5.516 9.082,6.777 8.473,7.051 9.184,8.43 8.578,8.613 8.41,9.129 9.121,10.672 8.516,10.679 9.222,12.36 9.059,12.93 8.449,12.765 9.16,14.613 4.328,7.27"
         style="fill:none;stroke:#5e81b5;stroke-opacity:1;stroke-width:0.5608;stroke-linecap:square;stroke-linejoin:miter;stroke-miterlimit:3.375;stroke-dasharray:none"
         id="path20" /><path
         d="m 72.148,0.316 6.286,4.317 8.484,5.824 9.195,6.316 9.028,6.2 8.418,5.777 9.129,6.273 8.523,5.852 9.234,6.34 9.067,6.226 8.461,5.809 9.172,6.297 8.558,5.883 8.395,5.761 9.109,6.254 8.496,5.836 9.211,6.324 9.043,6.211 8.434,5.793 9.144,6.278 8.539,5.863 8.371,5.75 9.082,6.234 8.473,5.821 9.184,6.308 8.578,5.891 8.41,5.773 9.121,6.266 8.516,5.844 9.222,6.336 9.059,6.218 8.449,5.801 9.16,6.293 8.555,5.875 8.383,5.758 9.097,6.246 8.489,5.828 1.187,0.813 1.184,0.816 2.367,1.625 1.187,0.813 1.184,0.816 0.297,0.203 0.293,0.203 1.187,0.813 0.145,0.101 0.445,0.305"
         style="fill:none;stroke:#e19c24;stroke-opacity:1;stroke-width:0.5608;stroke-linecap:square;stroke-linejoin:miter;stroke-miterlimit:3.375;stroke-dasharray:none"
         id="path22" /><path
         d="m 7.441,74.379 0,2.406"
         style="fill:none;stroke:#000000;stroke-opacity:1;stroke-width:0.5608;stroke-linecap:butt;stroke-linejoin:miter;stroke-miterlimit:3.375;stroke-dasharray:none"
         id="path24" /><path
         d="m 21.82,74.379 0,2.406"
         style="fill:none;stroke:#000000;stroke-opacity:1;stroke-width:0.5608;stroke-linecap:butt;stroke-linejoin:miter;stroke-miterlimit:3.375;stroke-dasharray:none"
         id="path26" /><path
         d="m 36.199,74.379 0,4.012"
         style="fill:none;stroke:#000000;stroke-opacity:1;stroke-width:0.5608;stroke-linecap:butt;stroke-linejoin:miter;stroke-miterlimit:3.375;stroke-dasharray:none"
         id="path28" /><text
         transform="matrix(1,0,0,-1,27.315723,63.377854)"
         id="text30"
         style="stroke-width:0.5608;stroke-miterlimit:3.375;stroke-dasharray:none"><tspan
           style="fill:#000000;fill-opacity:1;fill-rule:nonzero;stroke:none;font-family:MathematicaSans;font-variant:normal;font-weight:normal;font-size:9;writing-mode:lr;-inkscape-font-specification:MathematicaSans;stroke-width:0.5608;stroke-miterlimit:3.375;stroke-dasharray:none"
           x="0"
           y="0"
           id="tspan32">-</tspan></text>
<text
         transform="matrix(1,0,0,-1,32.562723,63.377854)"
         id="text34"
         style="stroke-width:0.5608;stroke-miterlimit:3.375;stroke-dasharray:none"><tspan
           style="fill:#000000;fill-opacity:1;fill-rule:nonzero;stroke:none;font-family:Arial;font-variant:normal;font-weight:normal;font-size:9;writing-mode:lr;-inkscape-font-specification:ArialMT;stroke-width:0.5608;stroke-miterlimit:3.375;stroke-dasharray:none"
           x="0 5.004 7.497"
           y="0"
           sodipodi:role="line"
           id="tspan36">1.0</tspan></text>
<path
         d="m 50.578,74.379 0,2.406"
         style="fill:none;stroke:#000000;stroke-opacity:1;stroke-width:0.5608;stroke-linecap:butt;stroke-linejoin:miter;stroke-miterlimit:3.375;stroke-dasharray:none"
         id="path38" /><path
         d="m 64.961,74.379 0,2.406"
         style="fill:none;stroke:#000000;stroke-opacity:1;stroke-width:0.5608;stroke-linecap:butt;stroke-linejoin:miter;stroke-miterlimit:3.375;stroke-dasharray:none"
         id="path40" /><path
         d="m 79.34,74.379 0,2.406"
         style="fill:none;stroke:#000000;stroke-opacity:1;stroke-width:0.5608;stroke-linecap:butt;stroke-linejoin:miter;stroke-miterlimit:3.375;stroke-dasharray:none"
         id="path42" /><path
         d="m 93.719,74.379 0,2.406"
         style="fill:none;stroke:#000000;stroke-opacity:1;stroke-width:0.5608;stroke-linecap:butt;stroke-linejoin:miter;stroke-miterlimit:3.375;stroke-dasharray:none"
         id="path44" /><path
         d="m 108.102,74.379 0,4.012"
         style="fill:none;stroke:#000000;stroke-opacity:1;stroke-width:0.5608;stroke-linecap:butt;stroke-linejoin:miter;stroke-miterlimit:3.375;stroke-dasharray:none"
         id="path46" /><text
         transform="matrix(1,0,0,-1,99.215723,63.377854)"
         id="text48"
         style="stroke-width:0.5608;stroke-miterlimit:3.375;stroke-dasharray:none"><tspan
           style="fill:#000000;fill-opacity:1;fill-rule:nonzero;stroke:none;font-family:MathematicaSans;font-variant:normal;font-weight:normal;font-size:9;writing-mode:lr;-inkscape-font-specification:MathematicaSans;stroke-width:0.5608;stroke-miterlimit:3.375;stroke-dasharray:none"
           x="0"
           y="0"
           id="tspan50">-</tspan></text>
<text
         transform="matrix(1,0,0,-1,104.46272,63.377854)"
         id="text52"
         style="stroke-width:0.5608;stroke-miterlimit:3.375;stroke-dasharray:none"><tspan
           style="fill:#000000;fill-opacity:1;fill-rule:nonzero;stroke:none;font-family:Arial;font-variant:normal;font-weight:normal;font-size:9;writing-mode:lr;-inkscape-font-specification:ArialMT;stroke-width:0.5608;stroke-miterlimit:3.375;stroke-dasharray:none"
           x="0 5.004 7.497"
           y="0"
           sodipodi:role="line"
           id="tspan54">0.5</tspan></text>
<path
         d="m 122.48,74.379 0,2.406"
         style="fill:none;stroke:#000000;stroke-opacity:1;stroke-width:0.5608;stroke-linecap:butt;stroke-linejoin:miter;stroke-miterlimit:3.375;stroke-dasharray:none"
         id="path56" /><path
         d="m 136.859,74.379 0,2.406"
         style="fill:none;stroke:#000000;stroke-opacity:1;stroke-width:0.5608;stroke-linecap:butt;stroke-linejoin:miter;stroke-miterlimit:3.375;stroke-dasharray:none"
         id="path58" /><path
         d="m 151.238,74.379 0,2.406"
         style="fill:none;stroke:#000000;stroke-opacity:1;stroke-width:0.5608;stroke-linecap:butt;stroke-linejoin:miter;stroke-miterlimit:3.375;stroke-dasharray:none"
         id="path60" /><path
         d="m 165.621,74.379 0,2.406"
         style="fill:none;stroke:#000000;stroke-opacity:1;stroke-width:0.5608;stroke-linecap:butt;stroke-linejoin:miter;stroke-miterlimit:3.375;stroke-dasharray:none"
         id="path62" /><path
         d="m 180,74.379 0,4.012"
         style="fill:none;stroke:#000000;stroke-opacity:1;stroke-width:0.5608;stroke-linecap:butt;stroke-linejoin:miter;stroke-miterlimit:3.375;stroke-dasharray:none"
         id="path64" /><path
         d="m 194.379,74.379 0,2.406"
         style="fill:none;stroke:#000000;stroke-opacity:1;stroke-width:0.5608;stroke-linecap:butt;stroke-linejoin:miter;stroke-miterlimit:3.375;stroke-dasharray:none"
         id="path66" /><path
         d="m 208.762,74.379 0,2.406"
         style="fill:none;stroke:#000000;stroke-opacity:1;stroke-width:0.5608;stroke-linecap:butt;stroke-linejoin:miter;stroke-miterlimit:3.375;stroke-dasharray:none"
         id="path68" /><path
         d="m 223.141,74.379 0,2.406"
         style="fill:none;stroke:#000000;stroke-opacity:1;stroke-width:0.5608;stroke-linecap:butt;stroke-linejoin:miter;stroke-miterlimit:3.375;stroke-dasharray:none"
         id="path70" /><path
         d="m 237.52,74.379 0,2.406"
         style="fill:none;stroke:#000000;stroke-opacity:1;stroke-width:0.5608;stroke-linecap:butt;stroke-linejoin:miter;stroke-miterlimit:3.375;stroke-dasharray:none"
         id="path72" /><path
         d="m 251.898,74.379 0,4.012"
         style="fill:none;stroke:#000000;stroke-opacity:1;stroke-width:0.5608;stroke-linecap:butt;stroke-linejoin:miter;stroke-miterlimit:3.375;stroke-dasharray:none"
         id="path74" /><text
         transform="matrix(1,0,0,-1,245.64365,63.377854)"
         id="text76"
         style="stroke-width:0.5608;stroke-miterlimit:3.375;stroke-dasharray:none"><tspan
           style="fill:#000000;fill-opacity:1;fill-rule:nonzero;stroke:none;font-family:Arial;font-variant:normal;font-weight:normal;font-size:9;writing-mode:lr;-inkscape-font-specification:ArialMT;stroke-width:0.5608;stroke-miterlimit:3.375;stroke-dasharray:none"
           x="0 5.004 7.497"
           y="0"
           sodipodi:role="line"
           id="tspan78">0.5</tspan></text>
<path
         d="m 266.281,74.379 0,2.406"
         style="fill:none;stroke:#000000;stroke-opacity:1;stroke-width:0.5608;stroke-linecap:butt;stroke-linejoin:miter;stroke-miterlimit:3.375;stroke-dasharray:none"
         id="path80" /><path
         d="m 280.66,74.379 0,2.406"
         style="fill:none;stroke:#000000;stroke-opacity:1;stroke-width:0.5608;stroke-linecap:butt;stroke-linejoin:miter;stroke-miterlimit:3.375;stroke-dasharray:none"
         id="path82" /><path
         d="m 295.039,74.379 0,2.406"
         style="fill:none;stroke:#000000;stroke-opacity:1;stroke-width:0.5608;stroke-linecap:butt;stroke-linejoin:miter;stroke-miterlimit:3.375;stroke-dasharray:none"
         id="path84" /><path
         d="m 309.422,74.379 0,2.406"
         style="fill:none;stroke:#000000;stroke-opacity:1;stroke-width:0.5608;stroke-linecap:butt;stroke-linejoin:miter;stroke-miterlimit:3.375;stroke-dasharray:none"
         id="path86" /><path
         d="m 323.801,74.379 0,4.012"
         style="fill:none;stroke:#000000;stroke-opacity:1;stroke-width:0.5608;stroke-linecap:butt;stroke-linejoin:miter;stroke-miterlimit:3.375;stroke-dasharray:none"
         id="path88" /><text
         transform="matrix(1,0,0,-1,317.54365,63.377854)"
         id="text90"
         style="stroke-width:0.5608;stroke-miterlimit:3.375;stroke-dasharray:none"><tspan
           style="fill:#000000;fill-opacity:1;fill-rule:nonzero;stroke:none;font-family:Arial;font-variant:normal;font-weight:normal;font-size:9;writing-mode:lr;-inkscape-font-specification:ArialMT;stroke-width:0.5608;stroke-miterlimit:3.375;stroke-dasharray:none"
           x="0 5.004 7.497"
           y="0"
           sodipodi:role="line"
           id="tspan92">1.0</tspan></text>
<path
         d="m 338.18,74.379 0,2.406"
         style="fill:none;stroke:#000000;stroke-opacity:1;stroke-width:0.5608;stroke-linecap:butt;stroke-linejoin:miter;stroke-miterlimit:3.375;stroke-dasharray:none"
         id="path94" /><path
         d="m 352.559,74.379 0,2.406"
         style="fill:none;stroke:#000000;stroke-opacity:1;stroke-width:0.5608;stroke-linecap:butt;stroke-linejoin:miter;stroke-miterlimit:3.375;stroke-dasharray:none"
         id="path96" /><path
         d="m 0.25,74.379 359.5,0"
         style="fill:none;stroke:#000000;stroke-opacity:1;stroke-width:0.5608;stroke-linecap:butt;stroke-linejoin:miter;stroke-miterlimit:3.375;stroke-dasharray:none"
         id="path98" /><path
         d="m 180,5.254 2.406,0"
         style="fill:none;stroke:#000000;stroke-opacity:1;stroke-width:0.5608;stroke-linecap:butt;stroke-linejoin:miter;stroke-miterlimit:3.375;stroke-dasharray:none"
         id="path100" /><path
         d="m 180,15.129 2.406,0"
         style="fill:none;stroke:#000000;stroke-opacity:1;stroke-width:0.5608;stroke-linecap:butt;stroke-linejoin:miter;stroke-miterlimit:3.375;stroke-dasharray:none"
         id="path102" /><path
         d="m 180,25.004 4.012,0"
         style="fill:none;stroke:#000000;stroke-opacity:1;stroke-width:0.5608;stroke-linecap:butt;stroke-linejoin:miter;stroke-miterlimit:3.375;stroke-dasharray:none"
         id="path104" /><text
         transform="matrix(1,0,0,-1,159.23144,21.503805)"
         id="text106"
         style="stroke-width:0.5608;stroke-miterlimit:3.375;stroke-dasharray:none"><tspan
           style="fill:#000000;fill-opacity:1;fill-rule:nonzero;stroke:none;font-family:MathematicaSans;font-variant:normal;font-weight:normal;font-size:9;writing-mode:lr;-inkscape-font-specification:MathematicaSans;stroke-width:0.5608;stroke-miterlimit:3.375;stroke-dasharray:none"
           x="0"
           y="0"
           id="tspan108">-</tspan></text>
<text
         transform="matrix(1,0,0,-1,164.47845,21.503805)"
         id="text110"
         style="stroke-width:0.5608;stroke-miterlimit:3.375;stroke-dasharray:none"><tspan
           style="fill:#000000;fill-opacity:1;fill-rule:nonzero;stroke:none;font-family:Arial;font-variant:normal;font-weight:normal;font-size:9;writing-mode:lr;-inkscape-font-specification:ArialMT;stroke-width:0.5608;stroke-miterlimit:3.375;stroke-dasharray:none"
           x="0 5.004 7.497"
           y="0"
           sodipodi:role="line"
           id="tspan112">0.5</tspan></text>
<path
         d="m 180,34.879 2.406,0"
         style="fill:none;stroke:#000000;stroke-opacity:1;stroke-width:0.5608;stroke-linecap:butt;stroke-linejoin:miter;stroke-miterlimit:3.375;stroke-dasharray:none"
         id="path114" /><path
         d="m 180,44.754 2.406,0"
         style="fill:none;stroke:#000000;stroke-opacity:1;stroke-width:0.5608;stroke-linecap:butt;stroke-linejoin:miter;stroke-miterlimit:3.375;stroke-dasharray:none"
         id="path116" /><path
         d="m 180,54.629 2.406,0"
         style="fill:none;stroke:#000000;stroke-opacity:1;stroke-width:0.5608;stroke-linecap:butt;stroke-linejoin:miter;stroke-miterlimit:3.375;stroke-dasharray:none"
         id="path118" /><path
         d="m 180,64.504 2.406,0"
         style="fill:none;stroke:#000000;stroke-opacity:1;stroke-width:0.5608;stroke-linecap:butt;stroke-linejoin:miter;stroke-miterlimit:3.375;stroke-dasharray:none"
         id="path120" /><path
         d="m 180,74.379 4.012,0"
         style="fill:none;stroke:#000000;stroke-opacity:1;stroke-width:0.5608;stroke-linecap:butt;stroke-linejoin:miter;stroke-miterlimit:3.375;stroke-dasharray:none"
         id="path122" /><path
         d="m 180,84.254 2.406,0"
         style="fill:none;stroke:#000000;stroke-opacity:1;stroke-width:0.5608;stroke-linecap:butt;stroke-linejoin:miter;stroke-miterlimit:3.375;stroke-dasharray:none"
         id="path124" /><path
         d="m 180,94.129 2.406,0"
         style="fill:none;stroke:#000000;stroke-opacity:1;stroke-width:0.5608;stroke-linecap:butt;stroke-linejoin:miter;stroke-miterlimit:3.375;stroke-dasharray:none"
         id="path126" /><path
         d="m 180,104.004 2.406,0"
         style="fill:none;stroke:#000000;stroke-opacity:1;stroke-width:0.5608;stroke-linecap:butt;stroke-linejoin:miter;stroke-miterlimit:3.375;stroke-dasharray:none"
         id="path128" /><path
         d="m 180,113.879 2.406,0"
         style="fill:none;stroke:#000000;stroke-opacity:1;stroke-width:0.5608;stroke-linecap:butt;stroke-linejoin:miter;stroke-miterlimit:3.375;stroke-dasharray:none"
         id="path130" /><path
         d="m 180,123.75 4.012,0"
         style="fill:none;stroke:#000000;stroke-opacity:1;stroke-width:0.5608;stroke-linecap:butt;stroke-linejoin:miter;stroke-miterlimit:3.375;stroke-dasharray:none"
         id="path132" /><text
         transform="matrix(1,0,0,-1,164.48731,120.2519)"
         id="text134"
         style="stroke-width:0.5608;stroke-miterlimit:3.375;stroke-dasharray:none"><tspan
           style="fill:#000000;fill-opacity:1;fill-rule:nonzero;stroke:none;font-family:Arial;font-variant:normal;font-weight:normal;font-size:9;writing-mode:lr;-inkscape-font-specification:ArialMT;stroke-width:0.5608;stroke-miterlimit:3.375;stroke-dasharray:none"
           x="0 5.004 7.497"
           y="0"
           sodipodi:role="line"
           id="tspan136">0.5</tspan></text>
<path
         d="m 180,133.625 2.406,0"
         style="fill:none;stroke:#000000;stroke-opacity:1;stroke-width:0.5608;stroke-linecap:butt;stroke-linejoin:miter;stroke-miterlimit:3.375;stroke-dasharray:none"
         id="path138" /><path
         d="m 180,143.5 2.406,0"
         style="fill:none;stroke:#000000;stroke-opacity:1;stroke-width:0.5608;stroke-linecap:butt;stroke-linejoin:miter;stroke-miterlimit:3.375;stroke-dasharray:none"
         id="path140" /><path
         d="m 180,153.375 2.406,0"
         style="fill:none;stroke:#000000;stroke-opacity:1;stroke-width:0.5608;stroke-linecap:butt;stroke-linejoin:miter;stroke-miterlimit:3.375;stroke-dasharray:none"
         id="path142" /><path
         d="m 180,163.25 2.406,0"
         style="fill:none;stroke:#000000;stroke-opacity:1;stroke-width:0.5608;stroke-linecap:butt;stroke-linejoin:miter;stroke-miterlimit:3.375;stroke-dasharray:none"
         id="path144" /><path
         d="m 180,173.125 4.012,0"
         style="fill:none;stroke:#000000;stroke-opacity:1;stroke-width:0.5608;stroke-linecap:butt;stroke-linejoin:miter;stroke-miterlimit:3.375;stroke-dasharray:none"
         id="path146" /><text
         transform="matrix(1,0,0,-1,164.48731,169.62595)"
         id="text148"
         style="stroke-width:0.5608;stroke-miterlimit:3.375;stroke-dasharray:none"><tspan
           style="fill:#000000;fill-opacity:1;fill-rule:nonzero;stroke:none;font-family:Arial;font-variant:normal;font-weight:normal;font-size:9;writing-mode:lr;-inkscape-font-specification:ArialMT;stroke-width:0.5608;stroke-miterlimit:3.375;stroke-dasharray:none"
           x="0 5.004 7.497"
           y="0"
           sodipodi:role="line"
           id="tspan150">1.0</tspan></text>
<path
         d="m 180,183 2.406,0"
         style="fill:none;stroke:#000000;stroke-opacity:1;stroke-width:0.5608;stroke-linecap:butt;stroke-linejoin:miter;stroke-miterlimit:3.375;stroke-dasharray:none"
         id="path152" /><path
         d="m 180,192.875 2.406,0"
         style="fill:none;stroke:#000000;stroke-opacity:1;stroke-width:0.5608;stroke-linecap:butt;stroke-linejoin:miter;stroke-miterlimit:3.375;stroke-dasharray:none"
         id="path154" /><path
         d="m 180,202.75 2.406,0"
         style="fill:none;stroke:#000000;stroke-opacity:1;stroke-width:0.5608;stroke-linecap:butt;stroke-linejoin:miter;stroke-miterlimit:3.375;stroke-dasharray:none"
         id="path156" /><path
         d="m 180,212.625 2.406,0"
         style="fill:none;stroke:#000000;stroke-opacity:1;stroke-width:0.5608;stroke-linecap:butt;stroke-linejoin:miter;stroke-miterlimit:3.375;stroke-dasharray:none"
         id="path158" /><path
         d="m 180,222.5 4.012,0"
         style="fill:none;stroke:#000000;stroke-opacity:1;stroke-width:0.5608;stroke-linecap:butt;stroke-linejoin:miter;stroke-miterlimit:3.375;stroke-dasharray:none"
         id="path160" /><text
         transform="matrix(1,0,0,-1,164.48731,219)"
         id="text162"
         style="stroke-width:0.5608;stroke-miterlimit:3.375;stroke-dasharray:none"><tspan
           style="fill:#000000;fill-opacity:1;fill-rule:nonzero;stroke:none;font-family:Arial;font-variant:normal;font-weight:normal;font-size:9;writing-mode:lr;-inkscape-font-specification:ArialMT;stroke-width:0.5608;stroke-miterlimit:3.375;stroke-dasharray:none"
           x="0 5.004 7.497"
           y="0"
           sodipodi:role="line"
           id="tspan164">1.5</tspan></text>
<path
         d="M 180,0.316 180,222.5"
         style="fill:none;stroke:#000000;stroke-opacity:1;stroke-width:0.5608;stroke-linecap:butt;stroke-linejoin:miter;stroke-miterlimit:3.375;stroke-dasharray:none"
         id="path166" /></g><path
       style="fill:none;stroke:#000000;stroke-width:0.6378293;stroke-linecap:butt;stroke-linejoin:miter;stroke-miterlimit:4;stroke-opacity:1;stroke-dasharray:1.27565863, 0.63782931;stroke-dashoffset:0"
       d="m 322.9758,223.21858 0,-223.60296301"
       id="path3941"
       inkscape:connector-curvature="0" /><path
       style="fill:none;stroke:#000000;stroke-width:0.61968041;stroke-linecap:butt;stroke-linejoin:miter;stroke-opacity:1;stroke-miterlimit:4;stroke-dasharray:1.23936081,0.61968041;stroke-dashoffset:0"
       d="m 204.9696,222.47697 0,-222.88418227"
       id="path3943"
       inkscape:connector-curvature="0" /><path
       style="fill:none;stroke:#000000;stroke-width:0.67802229;stroke-linecap:butt;stroke-linejoin:miter;stroke-opacity:1;stroke-miterlimit:4;stroke-dasharray:1.35604458,0.67802229;stroke-dashoffset:0"
       d="m 153.8304,222.40303 0,-223.5007463"
       id="path3945"
       inkscape:connector-curvature="0" /><text
       xml:space="preserve"
       style="font-size:32px;font-style:normal;font-weight:normal;line-height:125%;letter-spacing:0px;word-spacing:0px;fill:#000000;fill-opacity:1;stroke:none;font-family:Sans"
       x="335.58905"
       y="-210.22093"
       id="text3947"
       sodipodi:linespacing="125%"
       transform="scale(1,-1)"><tspan
         sodipodi:role="line"
         id="tspan3949"
         x="335.58905"
         y="-210.22093"
         style="font-size:16px;font-weight:normal;-inkscape-font-specification:Sans">R</tspan></text>
<text
       xml:space="preserve"
       style="font-size:32px;font-style:normal;font-weight:normal;line-height:125%;letter-spacing:0px;word-spacing:0px;fill:#000000;fill-opacity:1;stroke:none;font-family:Sans"
       x="259.14731"
       y="-211.26886"
       id="text3947-9"
       sodipodi:linespacing="125%"
       transform="scale(1,-1)"><tspan
         sodipodi:role="line"
         id="tspan3949-9"
         x="259.14731"
         y="-211.26886"
         style="font-size:16px;font-weight:normal;-inkscape-font-specification:Sans">F</tspan></text>
<text
       xml:space="preserve"
       style="font-size:32px;font-style:normal;font-weight:normal;line-height:125%;letter-spacing:0px;word-spacing:0px;fill:#000000;fill-opacity:1;stroke:none;font-family:Sans"
       x="189.72556"
       y="-210.88663"
       id="text3947-7"
       sodipodi:linespacing="125%"
       transform="scale(1,-1)"><tspan
         sodipodi:role="line"
         id="tspan3949-1"
         x="189.72556"
         y="-210.88663"
         style="font-size:16px;font-weight:normal;-inkscape-font-specification:Sans">L</tspan></text>
<text
       xml:space="preserve"
       style="font-size:32px;font-style:normal;font-weight:normal;line-height:125%;letter-spacing:0px;word-spacing:0px;fill:#000000;fill-opacity:1;stroke:none;font-family:Sans"
       x="159.77014"
       y="-211.57996"
       id="text3947-5"
       sodipodi:linespacing="125%"
       transform="scale(1,-1)"><tspan
         sodipodi:role="line"
         id="tspan3949-8"
         x="159.77014"
         y="-211.57996"
         style="font-size:16px;font-weight:normal;-inkscape-font-specification:Sans">r</tspan></text>
<text
       xml:space="preserve"
       style="font-size:32px;font-style:normal;font-weight:normal;line-height:125%;letter-spacing:0px;word-spacing:0px;fill:#000000;fill-opacity:1;stroke:none;font-family:Sans"
       x="70.862534"
       y="-210.88664"
       id="text3947-7-6"
       sodipodi:linespacing="125%"
       transform="scale(1,-1)"><tspan
         sodipodi:role="line"
         id="tspan3949-1-0"
         x="70.862534"
         y="-210.88664"
         style="font-size:16px;font-weight:normal;-inkscape-font-specification:Sans">l</tspan></text>
</g></svg>